# xmcd CD database file
#
# Track frame offsets:
#	150
#	39816
#	64798
#	93734
#	114629
#	144324
#	162966
#	195081
#	236320
#	261197
#	287961
#	310884
#	333371
#
# Disc length: 4770 seconds
#
# Revision: 0
# Processed by: cddbd v1.5.2PL0 Copyright (c) Steve Scherf et al.
# Submitted via: CDex 1.77
#
DISCID=af12a00d
DTITLE=Freddie Hubbard - Classic Recordings 1960 - 1962 - Disc 4
DYEAR=1960
DGENRE=Jazz
TTITLE0=Stolen Moments
TTITLE1=Cascades
TTITLE2=Yearnin'
TTITLE3=Butch and Butch
TTITLE4=Teenie's Blues
TTITLE5=Chantized
TTITLE6=Flutie
TTITLE7=If I Were a Bell
TTITLE8=But Beautiful
TTITLE9=Do I Love You
TTITLE10=The Court
TTITLE11=Mr. L
TTITLE12=Take Your Pick
EXTD=YEAR: 1960
EXTT0=
EXTT1=
EXTT2=
EXTT3=
EXTT4=
EXTT5=
EXTT6=
EXTT7=
EXTT8=
EXTT9=
EXTT10=
EXTT11=
EXTT12=
PLAYORDER=
